<svg id="Layer_1" height="512" viewBox="0 0 512 512" width="512" data-name="Layer 1" style="width: 20px; height: 20px;"><linearGradient id="linear-gradient" gradientUnits="userSpaceOnUse" x1="487.02" x2="-24.332" y1="487.02" y2="-24.332"><stop offset="0" stop-color="#f2884a"></stop><stop offset="1" stop-color="#f2c94c"></stop></linearGradient><linearGradient id="linear-gradient-2" gradientUnits="userSpaceOnUse" x1="317.027" x2="-20.418" y1="225.733" y2="-111.713"><stop offset="0" stop-color="#f2c94c"></stop><stop offset="0.268" stop-color="#f2c34c"></stop><stop offset="0.627" stop-color="#f2b24b"></stop><stop offset="1" stop-color="#f2994a"></stop></linearGradient><path d="m408 386h-304a40.045 40.045 0 0 1 -40-40v-180a40.045 40.045 0 0 1 40-40h304a40.045 40.045 0 0 1 40 40v180a40.045 40.045 0 0 1 -40 40z" fill="url(#linear-gradient)"></path><path d="m256 272.1a68.6 68.6 0 0 1 -31.373-7.577l-155.2-79.823a10 10 0 0 1 -5.427-8.89v-9.81a40.045 40.045 0 0 1 40-40h304a40.045 40.045 0 0 1 40 40v9.81a10 10 0 0 1 -5.427 8.893l-155.2 79.82a68.6 68.6 0 0 1 -31.373 7.577z" fill="url(#linear-gradient-2)"></path></svg>